<?xml version="1.0" standalone="no"?><!DOCTYPE svg PUBLIC "-//W3C//DTD SVG 1.1//EN" "http://www.w3.org/Graphics/SVG/1.1/DTD/svg11.dtd"><svg t="1727419902963" class="icon" viewBox="0 0 1024 1024" version="1.1" xmlns="http://www.w3.org/2000/svg" p-id="4278" width="50" height="50" xmlns:xlink="http://www.w3.org/1999/xlink"><path d="M992.080924 434.600735L589.366269 31.914525a109.795068 109.795068 0 0 0-154.793978 0L31.914525 434.629179a109.795068 109.795068 0 0 0 0 154.793979L434.629179 992.080924a109.795068 109.795068 0 0 0 154.793979 0L992.080924 589.366269a109.795068 109.795068 0 0 0 0-154.793978z" fill="#A115C4" p-id="4279"></path><path d="M689.632491 514.387047v52.5651h-66.844148l-50.65933-52.337545-43.662028 49.806001 52.138435 54.044204c6.399972 7.367078 15.985707 11.605282 26.168772 11.605282h82.858299V682.663633L824.885223 598.52534l-135.252732-84.138293zM261.403283 341.331816C242.686921 341.331816 227.554544 355.440198 227.554544 372.905009c0 17.407923 15.132377 31.544749 33.848739 31.544749h126.491882l59.22107 67.526811 43.662028-49.834445-60.67173-69.23347a34.872734 34.872734 0 0 0-26.140328-11.576838H261.403283z" fill="#FFFFFF" p-id="4280"></path><path d="M199.110226 598.52534L334.334514 682.663633v-52.5651h82.858298c10.183066 0 19.768801-4.266648 26.168773-11.576838l192.68181-214.071937h126.577216c18.602584 0 33.820294-14.16527 33.820294-31.573193 0-17.464811-15.21771-31.544749-33.848739-31.544749h-142.562922c-10.154622 0-19.711912 4.266648-26.225661 11.576838l-192.624922 214.071937h-66.844147v-52.621988L199.110226 598.553784z" fill="#FFFFFF" p-id="4281"></path></svg>